<?xml version="1.0" encoding="utf-8"?>
<!-- Generator: Adobe Illustrator 25.4.1, SVG Export Plug-In . SVG Version: 6.00 Build 0)  -->
<svg version="1.1" id="레이어_1" xmlns="http://www.w3.org/2000/svg" xmlns:xlink="http://www.w3.org/1999/xlink" x="0px"
	 y="0px" viewBox="0 0 110 22" style="enable-background:new 0 0 110 22;" xml:space="preserve">
<style type="text/css">
	.st0{fill:#FEAA08;}
</style>
<path class="st0" d="M10.5,1.5c0.1-0.3,0.4-0.4,0.6-0.3c0.2,0,0.3,0.2,0.3,0.3l2,6.5c0.1,0.2,0.3,0.4,0.5,0.4h6.6
	c0.3,0,0.5,0.2,0.5,0.5c0,0.2-0.1,0.3-0.2,0.4l-5.3,4.1c-0.2,0.1-0.2,0.3-0.2,0.5l2,6.6c0.1,0.3-0.1,0.5-0.3,0.6
	c-0.2,0-0.3,0-0.5-0.1l-5.3-4c-0.2-0.1-0.4-0.1-0.6,0l-5.2,4c-0.2,0.2-0.5,0.1-0.7-0.1c-0.1-0.1-0.1-0.3-0.1-0.5l2-6.6
	c0.1-0.2,0-0.4-0.2-0.5L1.2,9.3C1,9.1,0.9,8.8,1.1,8.6c0.1-0.1,0.2-0.2,0.4-0.2H8c0.2,0,0.4-0.1,0.5-0.4C8.5,8.1,10.5,1.5,10.5,1.5z
	 M32.5,1.5c0.1-0.3,0.4-0.4,0.6-0.3c0.2,0,0.3,0.2,0.3,0.3l2,6.5c0.1,0.2,0.3,0.4,0.5,0.4h6.6c0.3,0,0.5,0.2,0.5,0.5
	c0,0.2-0.1,0.3-0.2,0.4l-5.3,4.1c-0.2,0.1-0.2,0.3-0.2,0.5l2,6.6c0.1,0.3-0.1,0.5-0.3,0.6c-0.2,0-0.3,0-0.5-0.1l-5.3-4
	c-0.2-0.1-0.4-0.1-0.6,0l-5.3,4c-0.2,0.2-0.5,0.1-0.7-0.1c-0.1-0.1-0.1-0.3-0.1-0.5l2-6.6c0.1-0.2,0-0.4-0.2-0.5l-5.3-4.1
	c-0.2-0.2-0.3-0.5-0.1-0.7c0.1-0.1,0.2-0.2,0.4-0.2H30c0.2,0,0.4-0.1,0.5-0.4C30.5,8.1,32.5,1.5,32.5,1.5z M54.5,1.5
	c0.1-0.3,0.4-0.4,0.6-0.3c0.2,0,0.3,0.2,0.3,0.3l2,6.5c0.1,0.2,0.3,0.4,0.5,0.4h6.6c0.3,0,0.5,0.2,0.5,0.5c0,0.2-0.1,0.3-0.2,0.4
	l-5.3,4.1c-0.2,0.1-0.2,0.3-0.2,0.5l2,6.6c0.1,0.3-0.1,0.5-0.3,0.6c-0.2,0-0.3,0-0.5-0.1l-5.3-4c-0.2-0.1-0.4-0.1-0.6,0l-5.3,4
	c-0.2,0.2-0.5,0.1-0.7-0.1c-0.1-0.1-0.1-0.3-0.1-0.5l2-6.6c0.1-0.2,0-0.4-0.2-0.5l-5.3-4.1c-0.2-0.2-0.3-0.5-0.1-0.7
	c0.1-0.1,0.2-0.2,0.4-0.2H52c0.2,0,0.4-0.1,0.5-0.4C52.5,8.1,54.5,1.5,54.5,1.5z M76.5,1.5c0.1-0.3,0.4-0.4,0.6-0.3
	c0.2,0,0.3,0.2,0.3,0.3l2,6.5c0.1,0.2,0.3,0.4,0.5,0.4h6.6c0.3,0,0.5,0.2,0.5,0.5c0,0.2-0.1,0.3-0.2,0.4l-5.3,4.1
	c-0.2,0.1-0.2,0.3-0.2,0.5l2,6.6c0.1,0.3-0.1,0.5-0.3,0.6c-0.2,0-0.3,0-0.4-0.1l-5.3-4c-0.2-0.1-0.4-0.1-0.6,0l-5.3,4
	c-0.2,0.2-0.5,0.1-0.7-0.1c-0.1-0.1-0.1-0.3-0.1-0.5l2-6.6c0.1-0.2,0-0.4-0.2-0.5l-5.3-4.1c-0.2-0.2-0.3-0.5-0.1-0.7
	c0.1-0.1,0.2-0.2,0.4-0.2H74c0.2,0,0.4-0.1,0.5-0.4C74.5,8.1,76.5,1.5,76.5,1.5z M98.5,1.5c0.1-0.3,0.4-0.4,0.6-0.3
	c0.2,0,0.3,0.2,0.3,0.3l2,6.5c0.1,0.2,0.3,0.4,0.5,0.4h6.6c0.3,0,0.5,0.2,0.5,0.5c0,0.2-0.1,0.3-0.2,0.4l-5.3,4.1
	c-0.2,0.1-0.2,0.3-0.2,0.5l2,6.6c0.1,0.3-0.1,0.5-0.3,0.6c-0.2,0-0.3,0-0.5-0.1l-5.3-4c-0.2-0.1-0.4-0.1-0.6,0l-5.3,4
	c-0.2,0.2-0.5,0.1-0.7-0.1c-0.1-0.1-0.1-0.3-0.1-0.5l2-6.6c0.1-0.2,0-0.4-0.2-0.5l-5.3-4.1c-0.2-0.2-0.3-0.5-0.1-0.7
	c0.1-0.1,0.2-0.2,0.4-0.2H96c0.2,0,0.4-0.1,0.5-0.4C96.5,8.1,98.5,1.5,98.5,1.5z"/>
</svg>
