<svg width="110" height="22" fill="none" xmlns="http://www.w3.org/2000/svg">
    <path d="M10.522 1.546a.5.5 0 0 1 .956 0l2.01 6.505a.5.5 0 0 0 .478.352h6.556a.5.5 0 0 1 .303.898l-5.346 4.084a.5.5 0 0 0-.174.545l2.032 6.575a.5.5 0 0 1-.782.545l-5.252-4.012a.5.5 0 0 0-.607 0L5.446 21.05a.5.5 0 0 1-.782-.545l2.032-6.575a.5.5 0 0 0-.174-.545L1.175 9.301a.5.5 0 0 1 .303-.898h6.556a.5.5 0 0 0 .478-.352l2.01-6.505zM32.522 1.546a.5.5 0 0 1 .956 0l2.01 6.505a.5.5 0 0 0 .478.352h6.556a.5.5 0 0 1 .303.898l-5.346 4.084a.5.5 0 0 0-.174.545l2.032 6.575a.5.5 0 0 1-.782.545l-5.252-4.012a.5.5 0 0 0-.606 0l-5.252 4.012a.5.5 0 0 1-.782-.545l2.032-6.575a.5.5 0 0 0-.174-.545l-5.346-4.084a.5.5 0 0 1 .303-.898h6.556a.5.5 0 0 0 .478-.352l2.01-6.505zM54.522 1.546a.5.5 0 0 1 .956 0l2.01 6.505a.5.5 0 0 0 .478.352h6.556a.5.5 0 0 1 .303.898l-5.346 4.084a.5.5 0 0 0-.174.545l2.032 6.575a.5.5 0 0 1-.782.545l-5.252-4.012a.5.5 0 0 0-.606 0l-5.252 4.012a.5.5 0 0 1-.782-.545l2.032-6.575a.5.5 0 0 0-.174-.545l-5.346-4.084a.5.5 0 0 1 .303-.898h6.556a.5.5 0 0 0 .478-.352l2.01-6.505zM98.522 1.546a.5.5 0 0 1 .956 0l2.01 6.505a.5.5 0 0 0 .478.352h6.556a.5.5 0 0 1 .303.898l-5.346 4.084a.499.499 0 0 0-.174.545l2.032 6.575a.5.5 0 0 1-.782.545l-5.252-4.012a.5.5 0 0 0-.606 0l-5.252 4.012a.5.5 0 0 1-.781-.545l2.031-6.575a.5.5 0 0 0-.174-.545l-5.346-4.084a.5.5 0 0 1 .303-.898h6.556a.5.5 0 0 0 .478-.352l2.01-6.505zM76.522 1.546a.5.5 0 0 1 .956 0l2.01 6.505a.5.5 0 0 0 .478.352h6.556a.5.5 0 0 1 .303.898l-5.346 4.084a.5.5 0 0 0-.174.545l2.031 6.575a.5.5 0 0 1-.78.545l-5.252-4.012a.5.5 0 0 0-.608 0l-5.251 4.012a.5.5 0 0 1-.781-.545l2.031-6.575a.5.5 0 0 0-.174-.545l-5.346-4.084a.5.5 0 0 1 .303-.898h6.556a.5.5 0 0 0 .478-.352l2.01-6.505z" fill="#E5E5E5"/>
</svg>
